<?xml version="1.0" encoding="utf-8"?>
			<svg viewBox="0 0 47.045746 50.5" version="1.1"
				xmlns:xlink="http://www.w3.org/1999/xlink" xmlns="http://www.w3.org/2000/svg">
				<defs>
					<linearGradient gradientUnits="userSpaceOnUse" x1="-60.18479" y1="27.062622" x2="45.54239" y2="12.477451"
						id="gradient_1">
						<stop offset="0%" stop-color="#575757" />
						<stop offset="100%" stop-color="#BB9D88" />
					</linearGradient>
				</defs>
				<g id="logo-2" transform="matrix(-4.371139E-08 1 -1 -4.371139E-08 46.295746 0.7500019)">
					<path
						d="M9.80145 13.2925C9.80145 13.2925 38.3679 -6.30441 27.6304 13.2925C16.8928 32.8894 11.013 41.6143 21.9403 37.1366C32.8676 32.6589 34.0882 24.0772 38.7576 37.1366C43.427 50.1961 22.2326 6.56102 15.4307 9.6776"
						id="New-shape" fill="url(#gradient_1)" fill-rule="evenodd" stroke="#000000" stroke-width="1" />
					<path
						d="M8.53608 2.5445L39.2502 0.613099Q39.471 0.599216 39.6922 0.597556Q39.9134 0.595895 40.1343 0.606461Q40.3553 0.617028 40.5753 0.639788Q40.7953 0.662549 41.0137 0.697435Q41.2322 0.732321 41.4483 0.779225Q41.6645 0.82613 41.8778 0.884909Q42.091 0.943688 42.3007 1.01416Q42.5104 1.08464 42.7158 1.16659Q42.9213 1.24855 43.1219 1.34173Q43.3225 1.43492 43.5177 1.53904Q43.7128 1.64317 43.9019 1.75793Q44.091 1.87268 44.2735 1.99771Q44.456 2.12274 44.6313 2.25767Q44.8066 2.39259 44.9741 2.537Q45.1417 2.6814 45.301 2.83485Q45.4603 2.98829 45.6109 3.15031Q45.7615 3.31232 45.903 3.48241Q46.0444 3.65251 46.1762 3.83015Q46.308 4.0078 46.4298 4.19246Q46.5516 4.37712 46.6629 4.56822Q46.7743 4.75933 46.875 4.9563Q46.9757 5.15327 47.0653 5.35551Q47.1549 5.55774 47.2332 5.76462Q47.3115 5.97149 47.3783 6.18238Q47.445 6.39327 47.5 6.60753Q47.555 6.82178 47.5981 7.03875Q47.6412 7.25572 47.6722 7.47473Q47.7032 7.69375 47.7221 7.91414Q47.7409 8.13454 47.7476 8.35564Q47.7542 8.57674 47.7487 8.79787Q47.7431 9.019 47.7253 9.23949Q47.7075 9.45997 47.6776 9.67914L44.0738 36.0565Q44.028 36.3916 43.9541 36.7216Q43.8802 37.0516 43.7787 37.3741Q43.6772 37.6967 43.5489 38.0096Q43.4205 38.3225 43.2662 38.6234Q43.1119 38.9243 42.9328 39.2111Q42.7537 39.4979 42.5509 39.7686Q42.3482 40.0393 42.1234 40.2919Q41.8986 40.5445 41.6532 40.7772Q41.4078 41.01 41.1437 41.2211Q40.8796 41.4323 40.5986 41.6205Q40.3176 41.8086 40.0217 41.9724Q39.7258 42.1361 39.4172 42.2743Q39.1086 42.4125 38.7894 42.5242Q38.4701 42.6358 38.1427 42.7201Q37.8152 42.8044 37.4817 42.8608Q37.1483 42.9172 36.8113 42.9452L13.1465 44.9131Q12.9566 44.9289 12.7662 44.9357Q12.5758 44.9424 12.3853 44.94Q12.1948 44.9377 12.0046 44.9263Q11.8144 44.9149 11.625 44.8944Q11.4356 44.874 11.2474 44.8445Q11.0591 44.8151 10.8725 44.7767Q10.6859 44.7384 10.5013 44.6912Q10.3168 44.6439 10.1346 44.588Q9.95251 44.532 9.77327 44.4675Q9.59402 44.4029 9.41804 44.3299Q9.24207 44.2569 9.06977 44.1756Q8.89748 44.0943 8.72925 44.0049Q8.56102 43.9155 8.39723 43.8181Q8.23345 43.7208 8.07449 43.6158Q7.91552 43.5108 7.76174 43.3983Q7.60795 43.2858 7.4597 43.1662Q7.31145 43.0465 7.16905 42.9199Q7.02666 42.7934 6.89046 42.6601Q6.75426 42.5269 6.62455 42.3874Q6.49485 42.2478 6.37193 42.1023Q6.24902 41.9567 6.13317 41.8054Q6.01733 41.6542 5.90881 41.4976Q5.8003 41.341 5.69937 41.1794Q5.59843 41.0178 5.5053 40.8516Q5.41218 40.6854 5.32707 40.515Q5.24196 40.3445 5.16506 40.1702Q5.08817 39.9959 5.01965 39.8181Q4.95114 39.6403 4.89117 39.4595Q4.8312 39.2787 4.77991 39.0952Q4.72862 38.9117 4.68612 38.726Q4.64362 38.5403 4.61001 38.3527Q4.5764 38.1652 4.55176 37.9763L1.10629 11.5624Q1.07981 11.3594 1.06374 11.1553Q1.04768 10.9512 1.04208 10.7465Q1.03648 10.5418 1.04136 10.3372Q1.04624 10.1325 1.06158 9.92834Q1.07692 9.72418 1.10269 9.52108Q1.12845 9.31797 1.16457 9.11645Q1.20069 8.91493 1.24708 8.71552Q1.29346 8.51611 1.34998 8.31934Q1.40651 8.12256 1.47302 7.92894Q1.53954 7.73531 1.61587 7.54534Q1.69221 7.35537 1.77816 7.16956Q1.86411 6.98374 1.95945 6.80256Q2.0548 6.62139 2.15929 6.44533Q2.26377 6.26927 2.37713 6.09878Q2.49049 5.9283 2.61242 5.76383Q2.73435 5.59937 2.86454 5.44136Q2.99472 5.28335 3.13282 5.1322Q3.27091 4.98106 3.41656 4.83718Q3.56221 4.6933 3.71503 4.55705Q3.86785 4.42081 4.02743 4.29257Q4.18702 4.16432 4.35296 4.0444Q4.5189 3.92449 4.69075 3.81322Q4.86261 3.70195 5.03993 3.59962Q5.21726 3.49729 5.39958 3.40416Q5.58191 3.31103 5.76876 3.22736Q5.95561 3.14368 6.1465 3.06967Q6.33739 2.99566 6.53181 2.93151Q6.72623 2.86737 6.92368 2.81325Q7.12113 2.75913 7.32109 2.71518Q7.52105 2.67124 7.723 2.63758Q7.92495 2.60392 8.12835 2.58063Q8.33175 2.55735 8.53608 2.5445Z"
						id="Rectangle-2" fill="none" fill-rule="evenodd" stroke="#191919" stroke-width="1.5" />
				</g>
			</svg>